<mxfile host="app.diagrams.net" modified="2024-07-15T10:18:03.635Z" agent="Mozilla/5.0 (Windows NT 10.0; Win64; x64) AppleWebKit/537.36 (KHTML, like Gecko) Chrome/126.0.0.0 Safari/537.36" etag="wDmCe3f6OnO0ZevaWhN-" version="24.6.5" type="github">
  <diagram name="Page-1" id="2YBvvXClWsGukQMizWep">
    <mxGraphModel dx="1221" dy="725" grid="1" gridSize="10" guides="1" tooltips="1" connect="1" arrows="1" fold="1" page="1" pageScale="1" pageWidth="850" pageHeight="1100" math="0" shadow="0">
      <root>
        <mxCell id="0" />
        <mxCell id="1" parent="0" />
        <mxCell id="qH2ozDzstvrjOlz5s0LG-1" value="数据同步客户端" style="shape=umlLifeline;perimeter=lifelinePerimeter;whiteSpace=wrap;html=1;container=0;dropTarget=0;collapsible=0;recursiveResize=0;outlineConnect=0;portConstraint=eastwest;newEdgeStyle={&quot;edgeStyle&quot;:&quot;elbowEdgeStyle&quot;,&quot;elbow&quot;:&quot;vertical&quot;,&quot;curved&quot;:0,&quot;rounded&quot;:0};" vertex="1" parent="1">
          <mxGeometry x="63" y="40" width="100" height="1000" as="geometry" />
        </mxCell>
        <mxCell id="qH2ozDzstvrjOlz5s0LG-2" value="" style="html=1;points=[];perimeter=orthogonalPerimeter;outlineConnect=0;targetShapes=umlLifeline;portConstraint=eastwest;newEdgeStyle={&quot;edgeStyle&quot;:&quot;elbowEdgeStyle&quot;,&quot;elbow&quot;:&quot;vertical&quot;,&quot;curved&quot;:0,&quot;rounded&quot;:0};" vertex="1" parent="qH2ozDzstvrjOlz5s0LG-1">
          <mxGeometry x="45" y="70" width="10" height="110" as="geometry" />
        </mxCell>
        <mxCell id="qH2ozDzstvrjOlz5s0LG-3" value="时间查询" style="html=1;verticalAlign=bottom;startArrow=oval;endArrow=block;startSize=8;edgeStyle=elbowEdgeStyle;elbow=vertical;curved=0;rounded=0;" edge="1" parent="qH2ozDzstvrjOlz5s0LG-1" target="qH2ozDzstvrjOlz5s0LG-2">
          <mxGeometry relative="1" as="geometry">
            <mxPoint x="-15" y="70" as="sourcePoint" />
          </mxGeometry>
        </mxCell>
        <mxCell id="qH2ozDzstvrjOlz5s0LG-4" value="" style="html=1;points=[[0,0,0,0,5],[0,1,0,0,-5],[1,0,0,0,5],[1,1,0,0,-5]];perimeter=orthogonalPerimeter;outlineConnect=0;targetShapes=umlLifeline;portConstraint=eastwest;newEdgeStyle={&quot;curved&quot;:0,&quot;rounded&quot;:0};" vertex="1" parent="qH2ozDzstvrjOlz5s0LG-1">
          <mxGeometry x="55" y="88" width="10" height="62" as="geometry" />
        </mxCell>
        <mxCell id="qH2ozDzstvrjOlz5s0LG-8" value="" style="html=1;points=[[0,0,0,0,5],[0,1,0,0,-5],[1,0,0,0,5],[1,1,0,0,-5]];perimeter=orthogonalPerimeter;outlineConnect=0;targetShapes=umlLifeline;portConstraint=eastwest;newEdgeStyle={&quot;curved&quot;:0,&quot;rounded&quot;:0};" vertex="1" parent="qH2ozDzstvrjOlz5s0LG-1">
          <mxGeometry x="45" y="197" width="10" height="323" as="geometry" />
        </mxCell>
        <mxCell id="qH2ozDzstvrjOlz5s0LG-9" value="数据导出" style="html=1;verticalAlign=bottom;startArrow=oval;endArrow=block;startSize=8;curved=0;rounded=0;entryX=0;entryY=0;entryDx=0;entryDy=5;" edge="1" parent="qH2ozDzstvrjOlz5s0LG-1" target="qH2ozDzstvrjOlz5s0LG-8">
          <mxGeometry relative="1" as="geometry">
            <mxPoint x="-25" y="202" as="sourcePoint" />
          </mxGeometry>
        </mxCell>
        <mxCell id="qH2ozDzstvrjOlz5s0LG-10" value="" style="html=1;points=[[0,0,0,0,5],[0,1,0,0,-5],[1,0,0,0,5],[1,1,0,0,-5]];perimeter=orthogonalPerimeter;outlineConnect=0;targetShapes=umlLifeline;portConstraint=eastwest;newEdgeStyle={&quot;curved&quot;:0,&quot;rounded&quot;:0};" vertex="1" parent="qH2ozDzstvrjOlz5s0LG-1">
          <mxGeometry x="55" y="237" width="10" height="80" as="geometry" />
        </mxCell>
        <mxCell id="qH2ozDzstvrjOlz5s0LG-11" value="" style="html=1;points=[[0,0,0,0,5],[0,1,0,0,-5],[1,0,0,0,5],[1,1,0,0,-5]];perimeter=orthogonalPerimeter;outlineConnect=0;targetShapes=umlLifeline;portConstraint=eastwest;newEdgeStyle={&quot;curved&quot;:0,&quot;rounded&quot;:0};" vertex="1" parent="qH2ozDzstvrjOlz5s0LG-1">
          <mxGeometry x="55" y="396" width="10" height="80" as="geometry" />
        </mxCell>
        <mxCell id="qH2ozDzstvrjOlz5s0LG-12" value="" style="html=1;points=[[0,0,0,0,5],[0,1,0,0,-5],[1,0,0,0,5],[1,1,0,0,-5]];perimeter=orthogonalPerimeter;outlineConnect=0;targetShapes=umlLifeline;portConstraint=eastwest;newEdgeStyle={&quot;curved&quot;:0,&quot;rounded&quot;:0};" vertex="1" parent="qH2ozDzstvrjOlz5s0LG-1">
          <mxGeometry x="45" y="582" width="10" height="366" as="geometry" />
        </mxCell>
        <mxCell id="qH2ozDzstvrjOlz5s0LG-17" value="" style="html=1;points=[[0,0,0,0,5],[0,1,0,0,-5],[1,0,0,0,5],[1,1,0,0,-5]];perimeter=orthogonalPerimeter;outlineConnect=0;targetShapes=umlLifeline;portConstraint=eastwest;newEdgeStyle={&quot;curved&quot;:0,&quot;rounded&quot;:0};" vertex="1" parent="qH2ozDzstvrjOlz5s0LG-1">
          <mxGeometry x="55" y="633" width="10" height="80" as="geometry" />
        </mxCell>
        <mxCell id="qH2ozDzstvrjOlz5s0LG-18" value="" style="html=1;points=[[0,0,0,0,5],[0,1,0,0,-5],[1,0,0,0,5],[1,1,0,0,-5]];perimeter=orthogonalPerimeter;outlineConnect=0;targetShapes=umlLifeline;portConstraint=eastwest;newEdgeStyle={&quot;curved&quot;:0,&quot;rounded&quot;:0};" vertex="1" parent="qH2ozDzstvrjOlz5s0LG-1">
          <mxGeometry x="55" y="763" width="10" height="80" as="geometry" />
        </mxCell>
        <mxCell id="qH2ozDzstvrjOlz5s0LG-26" value="信息图谱&lt;div&gt;互联网&lt;br&gt;&lt;/div&gt;" style="shape=umlLifeline;perimeter=lifelinePerimeter;whiteSpace=wrap;html=1;container=0;dropTarget=0;collapsible=0;recursiveResize=0;outlineConnect=0;portConstraint=eastwest;newEdgeStyle={&quot;edgeStyle&quot;:&quot;elbowEdgeStyle&quot;,&quot;elbow&quot;:&quot;vertical&quot;,&quot;curved&quot;:0,&quot;rounded&quot;:0};" vertex="1" parent="1">
          <mxGeometry x="263" y="40" width="100" height="1000" as="geometry" />
        </mxCell>
        <mxCell id="qH2ozDzstvrjOlz5s0LG-31" value="" style="html=1;points=[];perimeter=orthogonalPerimeter;outlineConnect=0;targetShapes=umlLifeline;portConstraint=eastwest;newEdgeStyle={&quot;edgeStyle&quot;:&quot;elbowEdgeStyle&quot;,&quot;elbow&quot;:&quot;vertical&quot;,&quot;curved&quot;:0,&quot;rounded&quot;:0};" vertex="1" parent="qH2ozDzstvrjOlz5s0LG-26">
          <mxGeometry x="45" y="88.5" width="10" height="61" as="geometry" />
        </mxCell>
        <mxCell id="qH2ozDzstvrjOlz5s0LG-32" value="" style="html=1;points=[[0,0,0,0,5],[0,1,0,0,-5],[1,0,0,0,5],[1,1,0,0,-5]];perimeter=orthogonalPerimeter;outlineConnect=0;targetShapes=umlLifeline;portConstraint=eastwest;newEdgeStyle={&quot;curved&quot;:0,&quot;rounded&quot;:0};" vertex="1" parent="qH2ozDzstvrjOlz5s0LG-26">
          <mxGeometry x="45" y="633" width="10" height="80" as="geometry" />
        </mxCell>
        <mxCell id="qH2ozDzstvrjOlz5s0LG-33" value="" style="html=1;points=[[0,0,0,0,5],[0,1,0,0,-5],[1,0,0,0,5],[1,1,0,0,-5]];perimeter=orthogonalPerimeter;outlineConnect=0;targetShapes=umlLifeline;portConstraint=eastwest;newEdgeStyle={&quot;curved&quot;:0,&quot;rounded&quot;:0};" vertex="1" parent="qH2ozDzstvrjOlz5s0LG-26">
          <mxGeometry x="45" y="763" width="10" height="80" as="geometry" />
        </mxCell>
        <mxCell id="qH2ozDzstvrjOlz5s0LG-30" value="基础信息平台&lt;div&gt;保密网&lt;/div&gt;" style="shape=umlLifeline;perimeter=lifelinePerimeter;whiteSpace=wrap;html=1;container=0;dropTarget=0;collapsible=0;recursiveResize=0;outlineConnect=0;portConstraint=eastwest;newEdgeStyle={&quot;edgeStyle&quot;:&quot;elbowEdgeStyle&quot;,&quot;elbow&quot;:&quot;vertical&quot;,&quot;curved&quot;:0,&quot;rounded&quot;:0};fillColor=#f8cecc;strokeColor=#b85450;" vertex="1" parent="1">
          <mxGeometry x="433" y="39" width="100" height="1001" as="geometry" />
        </mxCell>
        <mxCell id="qH2ozDzstvrjOlz5s0LG-27" value="" style="html=1;points=[[0,0,0,0,5],[0,1,0,0,-5],[1,0,0,0,5],[1,1,0,0,-5]];perimeter=orthogonalPerimeter;outlineConnect=0;targetShapes=umlLifeline;portConstraint=eastwest;newEdgeStyle={&quot;curved&quot;:0,&quot;rounded&quot;:0};" vertex="1" parent="qH2ozDzstvrjOlz5s0LG-30">
          <mxGeometry x="45" y="238" width="10" height="80" as="geometry" />
        </mxCell>
        <mxCell id="qH2ozDzstvrjOlz5s0LG-28" value="" style="html=1;points=[[0,0,0,0,5],[0,1,0,0,-5],[1,0,0,0,5],[1,1,0,0,-5]];perimeter=orthogonalPerimeter;outlineConnect=0;targetShapes=umlLifeline;portConstraint=eastwest;newEdgeStyle={&quot;curved&quot;:0,&quot;rounded&quot;:0};" vertex="1" parent="qH2ozDzstvrjOlz5s0LG-30">
          <mxGeometry x="45" y="397" width="10" height="80" as="geometry" />
        </mxCell>
        <mxCell id="qH2ozDzstvrjOlz5s0LG-35" value="获取最近一次数据同步的时间" style="html=1;verticalAlign=bottom;endArrow=block;curved=0;rounded=0;exitX=1;exitY=0;exitDx=0;exitDy=5;exitPerimeter=0;" edge="1" parent="1" source="qH2ozDzstvrjOlz5s0LG-4" target="qH2ozDzstvrjOlz5s0LG-31">
          <mxGeometry width="80" relative="1" as="geometry">
            <mxPoint x="173" y="150" as="sourcePoint" />
            <mxPoint x="253" y="150" as="targetPoint" />
          </mxGeometry>
        </mxCell>
        <mxCell id="qH2ozDzstvrjOlz5s0LG-36" value="时间" style="html=1;verticalAlign=bottom;endArrow=open;dashed=1;endSize=8;curved=0;rounded=0;entryX=1;entryY=1;entryDx=0;entryDy=-5;entryPerimeter=0;" edge="1" parent="1" target="qH2ozDzstvrjOlz5s0LG-4" source="qH2ozDzstvrjOlz5s0LG-31">
          <mxGeometry relative="1" as="geometry">
            <mxPoint x="583" y="190" as="sourcePoint" />
            <mxPoint x="128" y="185.5" as="targetPoint" />
          </mxGeometry>
        </mxCell>
        <mxCell id="qH2ozDzstvrjOlz5s0LG-43" value="获取登记数据(增量)" style="html=1;verticalAlign=bottom;endArrow=block;curved=0;rounded=0;entryX=0;entryY=0;entryDx=0;entryDy=5;exitX=1;exitY=0;exitDx=0;exitDy=5;exitPerimeter=0;" edge="1" parent="1" source="qH2ozDzstvrjOlz5s0LG-10" target="qH2ozDzstvrjOlz5s0LG-27">
          <mxGeometry relative="1" as="geometry">
            <mxPoint x="528" y="282" as="sourcePoint" />
          </mxGeometry>
        </mxCell>
        <mxCell id="qH2ozDzstvrjOlz5s0LG-44" value="登记数据" style="html=1;verticalAlign=bottom;endArrow=open;dashed=1;endSize=8;curved=0;rounded=0;exitX=0;exitY=1;exitDx=0;exitDy=-5;entryX=1;entryY=1;entryDx=0;entryDy=-5;entryPerimeter=0;" edge="1" parent="1" source="qH2ozDzstvrjOlz5s0LG-27" target="qH2ozDzstvrjOlz5s0LG-10">
          <mxGeometry relative="1" as="geometry">
            <mxPoint x="528" y="352" as="targetPoint" />
          </mxGeometry>
        </mxCell>
        <mxCell id="qH2ozDzstvrjOlz5s0LG-45" value="获取登记文件信息数据(增量)" style="html=1;verticalAlign=bottom;endArrow=block;curved=0;rounded=0;entryX=0;entryY=0;entryDx=0;entryDy=5;exitX=1;exitY=0;exitDx=0;exitDy=5;exitPerimeter=0;" edge="1" parent="1" source="qH2ozDzstvrjOlz5s0LG-11" target="qH2ozDzstvrjOlz5s0LG-28">
          <mxGeometry relative="1" as="geometry">
            <mxPoint x="528" y="441" as="sourcePoint" />
          </mxGeometry>
        </mxCell>
        <mxCell id="qH2ozDzstvrjOlz5s0LG-46" value="登记文件信息数据(增量)" style="html=1;verticalAlign=bottom;endArrow=open;dashed=1;endSize=8;curved=0;rounded=0;exitX=0;exitY=1;exitDx=0;exitDy=-5;entryX=1;entryY=1;entryDx=0;entryDy=-5;entryPerimeter=0;" edge="1" parent="1" source="qH2ozDzstvrjOlz5s0LG-28" target="qH2ozDzstvrjOlz5s0LG-11">
          <mxGeometry relative="1" as="geometry">
            <mxPoint x="528" y="511" as="targetPoint" />
          </mxGeometry>
        </mxCell>
        <mxCell id="qH2ozDzstvrjOlz5s0LG-47" value="保密网数据同步到互联网" style="text;align=center;fontStyle=1;verticalAlign=middle;spacingLeft=3;spacingRight=3;strokeColor=none;rotatable=0;points=[[0,0.5],[1,0.5]];portConstraint=eastwest;html=1;" vertex="1" parent="1">
          <mxGeometry x="398" width="80" height="26" as="geometry" />
        </mxCell>
        <mxCell id="qH2ozDzstvrjOlz5s0LG-58" value="导入登记数据（增量）" style="html=1;verticalAlign=bottom;endArrow=block;curved=0;rounded=0;entryX=0;entryY=0;entryDx=0;entryDy=5;exitX=1;exitY=0;exitDx=0;exitDy=5;exitPerimeter=0;" edge="1" parent="1" source="qH2ozDzstvrjOlz5s0LG-17" target="qH2ozDzstvrjOlz5s0LG-32">
          <mxGeometry relative="1" as="geometry">
            <mxPoint x="698" y="678" as="sourcePoint" />
            <mxPoint as="offset" />
          </mxGeometry>
        </mxCell>
        <mxCell id="qH2ozDzstvrjOlz5s0LG-59" value="导入结果" style="html=1;verticalAlign=bottom;endArrow=open;dashed=1;endSize=8;curved=0;rounded=0;exitX=0;exitY=1;exitDx=0;exitDy=-5;entryX=1;entryY=1;entryDx=0;entryDy=-5;entryPerimeter=0;" edge="1" parent="1" source="qH2ozDzstvrjOlz5s0LG-32" target="qH2ozDzstvrjOlz5s0LG-17">
          <mxGeometry relative="1" as="geometry">
            <mxPoint x="698" y="748" as="targetPoint" />
          </mxGeometry>
        </mxCell>
        <mxCell id="qH2ozDzstvrjOlz5s0LG-60" value="导入登记文件信息数据（增量）" style="html=1;verticalAlign=bottom;endArrow=block;curved=0;rounded=0;entryX=0;entryY=0;entryDx=0;entryDy=5;exitX=1;exitY=0;exitDx=0;exitDy=5;exitPerimeter=0;" edge="1" parent="1" source="qH2ozDzstvrjOlz5s0LG-18" target="qH2ozDzstvrjOlz5s0LG-33">
          <mxGeometry relative="1" as="geometry">
            <mxPoint x="698" y="808" as="sourcePoint" />
          </mxGeometry>
        </mxCell>
        <mxCell id="qH2ozDzstvrjOlz5s0LG-61" value="导入结果" style="html=1;verticalAlign=bottom;endArrow=open;dashed=1;endSize=8;curved=0;rounded=0;exitX=0;exitY=1;exitDx=0;exitDy=-5;entryX=1;entryY=1;entryDx=0;entryDy=-5;entryPerimeter=0;" edge="1" parent="1" source="qH2ozDzstvrjOlz5s0LG-33" target="qH2ozDzstvrjOlz5s0LG-18">
          <mxGeometry relative="1" as="geometry">
            <mxPoint x="698" y="878" as="targetPoint" />
          </mxGeometry>
        </mxCell>
        <mxCell id="qH2ozDzstvrjOlz5s0LG-66" value="数据导入" style="html=1;verticalAlign=bottom;startArrow=circle;startFill=1;endArrow=open;startSize=6;endSize=8;curved=0;rounded=0;" edge="1" parent="1">
          <mxGeometry width="80" relative="1" as="geometry">
            <mxPoint x="33" y="630" as="sourcePoint" />
            <mxPoint x="113" y="630" as="targetPoint" />
          </mxGeometry>
        </mxCell>
      </root>
    </mxGraphModel>
  </diagram>
</mxfile>
